<svg width="36" height="36" viewBox="0 0 36 36" fill="none" xmlns="http://www.w3.org/2000/svg">
<g clip-path="url(#clip0_20886_3183)">
<path d="M0 18C0 8.05887 8.05887 0 18 0C27.9411 0 36 8.05887 36 18C36 27.9411 27.9411 36 18 36C8.05887 36 0 27.9411 0 18Z" fill="white"/>
<path fill-rule="evenodd" clip-rule="evenodd" d="M21.9502 7.2002C22.1386 8.48016 21.6176 9.73411 20.9304 10.6213C20.1951 11.5729 18.9277 12.3089 17.6997 12.2705C17.4756 11.0451 18.0495 9.78244 18.7479 8.93367C19.514 7.99692 20.8269 7.27826 21.9502 7.2002ZM25.639 25.2164C26.2721 24.2462 26.5086 23.7568 27 22.6614C23.4257 21.3022 22.853 16.2207 26.3903 14.2704C25.3114 12.9173 23.7952 12.133 22.364 12.133C21.3328 12.133 20.6262 12.4021 19.9839 12.6467C19.4486 12.8506 18.9579 13.0375 18.3611 13.0375C17.7162 13.0375 17.1451 12.8327 16.5471 12.6183C15.89 12.3827 15.2004 12.1354 14.3447 12.1354C12.7386 12.1354 11.029 13.1168 9.94518 14.7945C8.42162 17.1574 8.6815 21.5995 11.1522 25.3837C12.0353 26.738 13.2152 28.2596 14.7585 28.2732C15.3989 28.2796 15.825 28.0884 16.2861 27.8816C16.8139 27.6449 17.3876 27.3876 18.3808 27.3823C19.3799 27.3763 19.9446 27.6368 20.4653 27.877C20.9146 28.0842 21.3313 28.2764 21.9662 28.2695C23.5107 28.2571 24.7559 26.5707 25.639 25.2164Z" fill="#0B0B0A"/>
</g>
<defs>
<clipPath id="clip0_20886_3183">
<rect width="36" height="36" fill="white"/>
</clipPath>
</defs>
</svg>
