<svg width="25" height="24" viewBox="0 0 25 24" fill="none" xmlns="http://www.w3.org/2000/svg">
<path d="M0.5 12C0.5 5.37258 5.87258 0 12.5 0C19.1274 0 24.5 5.37258 24.5 12C24.5 18.6274 19.1274 24 12.5 24C5.87258 24 0.5 18.6274 0.5 12Z" fill="#EEEEEE"/>
<path fill-rule="evenodd" clip-rule="evenodd" d="M15.1335 4.7998C15.2591 5.65312 14.9118 6.48908 14.4536 7.08054C13.9634 7.71494 13.1185 8.20562 12.2998 8.18001C12.1504 7.36305 12.533 6.5213 12.9986 5.95545C13.5093 5.33096 14.3846 4.85185 15.1335 4.7998ZM17.5927 16.8106C18.0147 16.1638 18.1724 15.8375 18.5 15.1073C16.1171 14.2011 15.7353 10.8135 18.0936 9.51326C17.3743 8.61121 16.3635 8.08832 15.4094 8.08832C14.7219 8.08832 14.2508 8.26773 13.8226 8.43083C13.4657 8.56675 13.1386 8.69134 12.7408 8.69134C12.3108 8.69134 11.9301 8.55482 11.5314 8.41188C11.0933 8.25481 10.6336 8.08997 10.0631 8.08997C8.99239 8.08997 7.8527 8.74421 7.13012 9.86268C6.11441 11.438 6.28766 14.3994 7.93481 16.9221C8.52354 17.825 9.31016 18.8394 10.339 18.8485C10.7659 18.8527 11.05 18.7253 11.3574 18.5874C11.7093 18.4296 12.0917 18.2581 12.7539 18.2546C13.42 18.2506 13.7964 18.4242 14.1436 18.5843C14.4431 18.7225 14.7209 18.8506 15.1441 18.846C16.1738 18.8377 17.0039 17.7135 17.5927 16.8106Z" fill="#0B0B0A"/>
</svg>
