<svg width="30" height="20" viewBox="0 0 30 20" fill="none" xmlns="http://www.w3.org/2000/svg">
<g clip-path="url(#clip0_20861_1731)">
<path d="M0 -0.128662H30V19.8716H0V-0.128662Z" fill="white"/>
<path d="M16.875 -0.128662H13.125V7.99631H0V11.7463H13.125V19.8713H16.875V11.7463H30V7.99631H16.875V-0.128662Z" fill="#D80027"/>
<path d="M23.0732 13.3489L29.9999 17.1971V13.3489H23.0732ZM18.2607 13.3489L29.9999 19.8706V18.0264L21.5804 13.3489H18.2607ZM26.873 19.8706L18.2607 15.0856V19.8706H26.873Z" fill="#0052B4"/>
<path d="M18.2607 13.3496L29.9999 19.8713V18.0272L21.5804 13.3496H18.2607Z" fill="white"/>
<path d="M18.2607 13.3496L29.9999 19.8713V18.0272L21.5804 13.3496H18.2607Z" fill="#D80027"/>
<path d="M5.29342 13.3489L0 16.2897V13.3489H5.29342ZM11.7391 14.1782V19.8707H1.49361L11.7391 14.1782Z" fill="#0052B4"/>
<path d="M8.41951 13.3496L0 18.0272V19.8713L11.7391 13.3496H8.41951Z" fill="#D80027"/>
<path d="M6.92666 6.39233L0 2.54412V6.39233H6.92666ZM11.7391 6.39233L0 -0.129395V1.71479L8.41951 6.39233H11.7391ZM3.12691 -0.129395L11.7391 4.65561V-0.129395H3.12691Z" fill="#0052B4"/>
<path d="M11.7391 6.39306L0 -0.128662V1.71552L8.41951 6.39306H11.7391Z" fill="white"/>
<path d="M11.7391 6.39306L0 -0.128662V1.71552L8.41951 6.39306H11.7391Z" fill="#D80027"/>
<path d="M24.7065 6.39239L29.9999 3.45157V6.39239H24.7065ZM18.2607 5.56305V-0.129395H28.5063L18.2607 5.56305Z" fill="#0052B4"/>
<path d="M21.5804 6.39306L29.9999 1.71552V-0.128662L18.2607 6.39306H21.5804Z" fill="#D80027"/>
</g>
<defs>
<clipPath id="clip0_20861_1731">
<rect width="30" height="20" fill="white"/>
</clipPath>
</defs>
</svg>
