<svg width="24" height="24" viewBox="0 0 24 24" fill="none" xmlns="http://www.w3.org/2000/svg">
<path d="M0 12C0 5.37258 5.37258 0 12 0C18.6274 0 24 5.37258 24 12C24 18.6274 18.6274 24 12 24C5.37258 24 0 18.6274 0 12Z" fill="#EEEEEE"/>
<path d="M11.9998 8.81145C12.9763 8.81145 13.6349 9.23323 14.0105 9.58567L15.478 8.15278C14.5767 7.315 13.4038 6.80078 11.9998 6.80078C9.96605 6.80078 8.2096 7.96789 7.35449 9.66656L9.03583 10.9723C9.4576 9.71856 10.6247 8.81145 11.9998 8.81145Z" fill="#EA4335"/>
<path d="M16.992 12.1158C16.992 11.6883 16.9573 11.3763 16.8822 11.0527H12V12.9825H14.8658C14.808 13.4621 14.496 14.1843 13.8027 14.6696L15.4436 15.9407C16.4258 15.0336 16.992 13.699 16.992 12.1158Z" fill="#4285F4"/>
<path d="M9.04158 13.0287C8.9318 12.7051 8.86825 12.3585 8.86825 12.0002C8.86825 11.642 8.9318 11.2953 9.0358 10.9718L7.35447 9.66602C7.00203 10.3709 6.7998 11.1625 6.7998 12.0002C6.7998 12.838 7.00203 13.6296 7.35447 14.3345L9.04158 13.0287Z" fill="#FBBC05"/>
<path d="M11.9999 17.2009C13.4039 17.2009 14.5826 16.7386 15.4435 15.9413L13.8026 14.6702C13.3635 14.9764 12.7741 15.1902 11.9999 15.1902C10.6248 15.1902 9.45768 14.2831 9.04168 13.0293L7.36035 14.3351C8.21546 16.0337 9.96613 17.2009 11.9999 17.2009Z" fill="#34A853"/>
</svg>
