<svg width="36" height="36" viewBox="0 0 36 36" fill="none" xmlns="http://www.w3.org/2000/svg">
<path d="M18 36C27.9411 36 36 27.9411 36 18C36 8.05887 27.9411 0 18 0C8.05887 0 0 8.05887 0 18C0 27.9411 8.05887 36 18 36Z" fill="white"/>
<path d="M25.2352 21.6337C27.8125 20.2049 29.7809 19.1135 29.9599 19.0141C30.4941 18.718 31.0536 17.9624 29.9599 17.3584C29.6084 17.1638 27.693 16.1059 25.2322 14.7461L21.8477 18.2006L25.2352 21.6337Z" fill="#FFE300"/>
<path d="M21.8476 18.2012L11.0225 29.2496C11.2669 29.281 11.561 29.2154 11.8992 29.0279C12.5993 28.6398 20.1187 24.4708 25.2354 21.634L21.8476 18.2012Z" fill="#FF4E54"/>
<path d="M21.8476 18.2009L25.2321 14.7464C25.2321 14.7464 12.6522 7.79454 11.8991 7.37837C11.6096 7.21836 11.294 7.16252 11.0146 7.22553L21.8476 18.2009Z" fill="#00F085"/>
<path d="M21.8474 18.2008L11.0143 7.22559C10.5669 7.32668 10.2002 7.71894 10.2002 8.50738V27.9324C10.2002 28.6749 10.4887 29.1971 11.0221 29.2492L21.8474 18.2008Z" fill="#00E0FF"/>
</svg>
