<svg width="25" height="24" viewBox="0 0 25 24" fill="none" xmlns="http://www.w3.org/2000/svg">
<path d="M0.5 12C0.5 5.37258 5.87258 0 12.5 0C19.1274 0 24.5 5.37258 24.5 12C24.5 18.6274 19.1274 24 12.5 24C5.87258 24 0.5 18.6274 0.5 12Z" fill="#EEEEEE"/>
<path d="M12.4998 8.81047C13.4763 8.81047 14.1349 9.23225 14.5105 9.58469L15.978 8.1518C15.0767 7.31403 13.9038 6.7998 12.4998 6.7998C10.466 6.7998 8.7096 7.96692 7.85449 9.66558L9.53583 10.9714C9.9576 9.71758 11.1247 8.81047 12.4998 8.81047Z" fill="#EA4335"/>
<path d="M17.492 12.1154C17.492 11.6878 17.4573 11.3758 17.3822 11.0522H12.5V12.982H15.3658C15.308 13.4616 14.996 14.1838 14.3027 14.6691L15.9436 15.9402C16.9258 15.0331 17.492 13.6985 17.492 12.1154Z" fill="#4285F4"/>
<path d="M9.54158 13.0282C9.4318 12.7046 9.36825 12.358 9.36825 11.9997C9.36825 11.6415 9.4318 11.2949 9.5358 10.9713L7.85447 9.66553C7.50203 10.3704 7.2998 11.162 7.2998 11.9997C7.2998 12.8375 7.50203 13.6291 7.85447 14.334L9.54158 13.0282Z" fill="#FBBC05"/>
<path d="M12.4999 17.1999C13.9039 17.1999 15.0826 16.7377 15.9435 15.9403L14.3026 14.6692C13.8635 14.9754 13.2741 15.1892 12.4999 15.1892C11.1248 15.1892 9.95768 14.2821 9.54168 13.0283L7.86035 14.3341C8.71546 16.0328 10.4661 17.1999 12.4999 17.1999Z" fill="#34A853"/>
</svg>
