<svg width="28" height="28" viewBox="0 0 28 28" fill="none" xmlns="http://www.w3.org/2000/svg">
<path fill-rule="evenodd" clip-rule="evenodd" d="M14 0C6.26801 0 0 6.26801 0 14C0 21.732 6.26801 28 14 28C21.732 28 28 21.732 28 14C28 6.26801 21.732 0 14 0ZM10.9219 6.57844C11.7184 6.5422 11.9729 6.53333 14.0007 6.53333H13.9984C16.0268 6.53333 16.2804 6.5422 17.0768 6.57844C17.8717 6.61485 18.4146 6.74069 18.8906 6.92534C19.3822 7.11589 19.7975 7.37101 20.2129 7.78635C20.6282 8.20137 20.8833 8.61796 21.0747 9.10905C21.2582 9.58381 21.3842 10.1264 21.4216 10.9213C21.4573 11.7177 21.4667 11.9722 21.4667 14.0001C21.4667 16.0279 21.4573 16.2818 21.4216 17.0782C21.3842 17.8728 21.2582 18.4156 21.0747 18.8905C20.8833 19.3814 20.6282 19.798 20.2129 20.213C19.798 20.6284 19.382 20.8841 18.8911 21.0748C18.416 21.2595 17.8728 21.3853 17.0779 21.4217C16.2815 21.458 16.0278 21.4668 13.9998 21.4668C11.9721 21.4668 11.7177 21.458 10.9213 21.4217C10.1265 21.3853 9.58381 21.2595 9.10874 21.0748C8.61796 20.8841 8.20137 20.6284 7.7865 20.213C7.37132 19.798 7.11621 19.3814 6.92534 18.8903C6.74085 18.4156 6.615 17.873 6.57844 17.0781C6.54236 16.2816 6.53333 16.0279 6.53333 14.0001C6.53333 11.9722 6.54267 11.7176 6.57829 10.9211C6.61407 10.1265 6.74007 9.58381 6.92518 9.10889C7.11652 8.61796 7.37163 8.20137 7.78697 7.78635C8.20199 7.37116 8.61858 7.11605 9.10967 6.92534C9.58443 6.74069 10.127 6.61485 10.9219 6.57844Z" fill="#1D1D1D"/>
<path fill-rule="evenodd" clip-rule="evenodd" d="M13.331 7.87882C13.461 7.87862 13.601 7.87868 13.752 7.87875L14.0008 7.87882C15.9944 7.87882 16.2307 7.88598 17.018 7.92175C17.746 7.95504 18.1411 8.07669 18.4043 8.17889C18.7528 8.31422 19.0012 8.476 19.2624 8.73734C19.5237 8.99868 19.6855 9.24757 19.8211 9.59602C19.9233 9.85891 20.0451 10.254 20.0783 10.982C20.1141 11.7691 20.1218 12.0056 20.1218 13.9983C20.1218 15.991 20.1141 16.2274 20.0783 17.0145C20.045 17.7425 19.9233 18.1377 19.8211 18.4005C19.6858 18.749 19.5237 18.9971 19.2624 19.2583C19.001 19.5196 18.7529 19.6814 18.4043 19.8167C18.1414 19.9194 17.746 20.0407 17.018 20.074C16.2309 20.1098 15.9944 20.1176 14.0008 20.1176C12.007 20.1176 11.7707 20.1098 10.9836 20.074C10.2556 20.0404 9.8605 19.9188 9.59715 19.8166C9.2487 19.6813 8.99981 19.5195 8.73847 19.2581C8.47713 18.9968 8.31535 18.7485 8.17971 18.3999C8.07751 18.137 7.95571 17.7419 7.92257 17.0139C7.88679 16.2268 7.87964 15.9903 7.87964 13.9964C7.87964 12.0025 7.88679 11.7673 7.92257 10.9802C7.95586 10.2522 8.07751 9.85704 8.17971 9.59384C8.31504 9.24539 8.47713 8.9965 8.73847 8.73516C8.99981 8.47383 9.2487 8.31205 9.59715 8.1764C9.86035 8.07373 10.2556 7.9524 10.9836 7.91895C11.6724 7.88784 11.9394 7.87851 13.331 7.87695V7.87882ZM17.9865 9.11861C17.4918 9.11861 17.0905 9.51948 17.0905 10.0143C17.0905 10.509 17.4918 10.9103 17.9865 10.9103C18.4812 10.9103 18.8825 10.509 18.8825 10.0143C18.8825 9.51964 18.4812 9.1183 17.9865 9.1183V9.11861ZM10.1663 13.9998C10.1663 11.8822 11.8831 10.1654 14.0007 10.1653C16.1183 10.1653 17.8347 11.8822 17.8347 13.9998C17.8347 16.1174 16.1184 17.8335 14.0008 17.8335C11.8832 17.8335 10.1663 16.1174 10.1663 13.9998Z" fill="#1D1D1D"/>
<path d="M14.0006 11.5107C15.3751 11.5107 16.4895 12.625 16.4895 13.9997C16.4895 15.3742 15.3751 16.4886 14.0006 16.4886C12.626 16.4886 11.5117 15.3742 11.5117 13.9997C11.5117 12.625 12.626 11.5107 14.0006 11.5107Z" fill="#1D1D1D"/>
</svg>
