<svg width="72" height="56" viewBox="0 0 72 56" fill="none" xmlns="http://www.w3.org/2000/svg">
<g clip-path="url(#clip0_20861_1773)">
<path fill-rule="evenodd" clip-rule="evenodd" d="M62.6763 36.9908L72 27.2294L62.6763 17.4679L57.2319 10.5251C56.0304 8.99294 54.6662 7.59346 53.1628 6.35083L52.7637 6.021C50.4144 4.07918 47.7196 2.59028 44.8184 1.63109C43.6032 1.22933 42.3581 0.922609 41.0946 0.713743L39.2222 0.40422C37.5948 0.1352 35.9478 0 34.298 0C32.5011 0 30.7078 0.160382 28.9398 0.479206L28.0093 0.647015C26.6051 0.900234 25.2251 1.2707 23.8838 1.75444C21.4434 2.63463 19.1517 3.88349 17.0934 5.45384C14.6973 7.282 12.6472 9.52221 11.045 12.0649L5.69784 20.5505H16.0576C16.6297 20.5505 17.0935 21.0105 17.0935 21.578C17.0935 22.4292 16.3978 23.1193 15.5396 23.1193H0.0505352C0.0226254 23.1193 0 23.0916 0 23.1193L0 23.633C0 24.4843 0.69573 25.1743 1.55396 25.1743H2.07194C2.64409 25.1743 3.10791 25.6343 3.10791 26.2018C3.10791 27.0531 2.41218 27.7431 1.55396 27.7431H0.621583C0.278292 27.7431 0 28.0191 0 28.3596V30.0037C0 30.1739 0.34634 30.3119 0.517986 30.3119H15.7374C15.9479 30.3119 16.1556 30.3605 16.3439 30.4539L16.5387 30.5506C16.8787 30.7192 17.0935 31.0639 17.0935 31.4409C17.0935 31.7049 16.9878 31.9581 16.7996 32.1448L16.5755 32.367C16.2439 32.6959 15.7941 32.8807 15.325 32.8807H6.21583L6.24583 32.9997C6.91221 35.6435 7.99948 38.165 9.46666 40.4691L10.7136 42.4273C12.5353 45.2882 14.8514 47.8081 17.5555 49.8712C19.3137 51.2126 21.2211 52.3496 23.2404 53.26L23.8829 53.5497C25.225 54.1547 26.6139 54.652 28.0361 55.0367L28.9933 55.2957C30.7215 55.7631 32.5047 56 34.296 56C35.9438 56 37.5853 55.7996 39.1839 55.4032L40.825 54.9963C42.2682 54.6384 43.6847 54.1728 45.0578 53.6053C47.8062 52.4695 50.3718 50.9285 52.6591 49.0379C54.496 47.5197 56.1414 45.7872 57.5598 43.878L62.6763 36.9908ZM50.0928 15.4128C50.4271 15.4128 50.6672 15.7345 50.5722 16.055L45.5827 32.8807H23.8273L18.6475 15.4128H13.7676C13.6019 15.4128 13.4676 15.2785 13.4676 15.1128V12.6303C13.4676 12.4646 13.6019 12.3303 13.7676 12.3303H20.6216C20.9992 12.3303 21.3446 12.543 21.5146 12.8801L22.5142 14.863C22.6842 15.2002 23.0295 15.4128 23.4071 15.4128H50.0928ZM37.259 29.7982C36.7067 29.7982 36.259 29.3505 36.259 28.7982V18.9817C36.259 18.4294 36.7067 17.9817 37.259 17.9817H45.2658C45.9383 17.9817 46.4191 18.6321 46.2218 19.275L43.2096 29.0915C43.0808 29.5115 42.6929 29.7982 42.2536 29.7982H37.259ZM31.6331 29.7982C32.1854 29.7982 32.6331 29.3505 32.6331 28.7982V18.9817C32.6331 18.4294 32.1854 17.9817 31.6331 17.9817H24.1442C23.4718 17.9817 22.991 18.6321 23.1882 19.275L26.2004 29.0915C26.3293 29.5115 26.7171 29.7982 27.1564 29.7982H31.6331ZM40.4971 42.4606C41.8345 43.9345 44.1511 43.9345 45.4885 42.4606C46.7001 41.1254 46.6461 39.073 45.366 37.8034C44.0522 36.5003 41.9334 36.5003 40.6196 37.8034C39.3395 39.073 39.2855 41.1254 40.4971 42.4606ZM42.2222 40.8503C42.6488 41.2735 43.3368 41.2735 43.7634 40.8503C44.195 40.4223 44.195 39.7245 43.7634 39.2964C43.3368 38.8733 42.6488 38.8733 42.2222 39.2964C41.7906 39.7245 41.7906 40.4223 42.2222 40.8503ZM28.7904 37.8034C30.0706 39.073 30.1246 41.1254 28.913 42.4606C27.5756 43.9345 25.259 43.9345 23.9216 42.4606C22.71 41.1254 22.764 39.073 24.0441 37.8034C25.3579 36.5003 27.4766 36.5003 28.7904 37.8034ZM27.1111 40.9265C27.5547 40.4865 27.4819 39.7499 26.9607 39.4052C26.6312 39.1873 26.2034 39.1873 25.8739 39.4052C25.3526 39.7499 25.2798 40.4865 25.7235 40.9265C26.1076 41.3075 26.727 41.3075 27.1111 40.9265ZM53.5072 35.2961C53.415 35.3876 53.3921 35.5281 53.4506 35.6441L54.3885 37.5046L66.3022 27.2294L55.4245 16.4404L54.3885 18.4954L60.0863 25.6881H52.4165C52.3613 25.6881 52.3165 25.7328 52.3165 25.7881V28.6706C52.3165 28.7259 52.3613 28.7706 52.4165 28.7706H60.0863L53.5072 35.2961Z" fill="#314863"/>
</g>
<defs>
<clipPath id="clip0_20861_1773">
<rect width="72" height="56" fill="white"/>
</clipPath>
</defs>
</svg>
