<svg width="16" height="16" viewBox="0 0 16 16" fill="none" xmlns="http://www.w3.org/2000/svg">
<path d="M7.66339 1.80937C7.8011 1.53034 8.19899 1.53034 8.3367 1.80937L10.1194 5.42145C10.1741 5.53226 10.2798 5.60906 10.402 5.62682L14.3882 6.20605C14.6961 6.25079 14.8191 6.62921 14.5963 6.8464L11.7119 9.65802C11.6234 9.74427 11.583 9.86853 11.6039 9.99032L12.2848 13.9604C12.3374 14.2671 12.0155 14.5009 11.7401 14.3561L8.17475 12.4817C8.06538 12.4242 7.93472 12.4242 7.82535 12.4817L4.26001 14.3561C3.98459 14.5009 3.66269 14.2671 3.71529 13.9604L4.39621 9.99032C4.4171 9.86853 4.37672 9.74427 4.28824 9.65802L1.40382 6.8464C1.181 6.62921 1.30396 6.25079 1.61189 6.20605L5.59806 5.62682C5.72033 5.60906 5.82604 5.53226 5.88072 5.42145L7.66339 1.80937Z" stroke="#FED84C" stroke-width="1.5" stroke-linejoin="round"/>
</svg>
