<svg width="20" height="20" viewBox="0 0 20 20" fill="none" xmlns="http://www.w3.org/2000/svg">
<path fill-rule="evenodd" clip-rule="evenodd" d="M0 10C0 15.5228 4.47715 20 10 20C15.5228 20 20 15.5228 20 10C20 4.47715 15.5228 0 10 0C4.47715 0 0 4.47715 0 10ZM8.16644 14.5835L8.33658 12.0345L8.33644 12.0344L12.9735 7.84978C13.177 7.66916 12.929 7.58109 12.6589 7.74491L6.93614 11.3553L4.46422 10.5838C3.9304 10.4204 3.92656 10.0535 4.58407 9.78981L14.2166 6.07556C14.6565 5.87582 15.0811 6.18122 14.9132 6.85457L13.2728 14.5848C13.1582 15.1341 12.8263 15.2655 12.3664 15.0118L9.86757 13.1656L8.66644 14.3335C8.66265 14.3372 8.65888 14.3409 8.65513 14.3445C8.52079 14.4753 8.40965 14.5835 8.16644 14.5835Z" fill="#EEEEEE"/>
</svg>
