<svg width="28" height="28" viewBox="0 0 28 28" fill="none" xmlns="http://www.w3.org/2000/svg">
<path fill-rule="evenodd" clip-rule="evenodd" d="M0 14C0 21.732 6.26801 28 14 28C21.732 28 28 21.732 28 14C28 6.26801 21.732 0 14 0C6.26801 0 0 6.26801 0 14ZM11.4334 20.4169L11.6716 16.8483L11.6714 16.8481L18.1632 10.9897C18.4482 10.7368 18.101 10.6135 17.7228 10.8429L9.71095 15.8975L6.25027 14.8173C5.50291 14.5885 5.49754 14.0749 6.41806 13.7057L19.9036 8.50578C20.5195 8.22615 21.1139 8.65371 20.8788 9.5964L18.5822 20.4188C18.4219 21.1878 17.9572 21.3717 17.3134 21.0165L13.8149 18.4318L12.1334 20.0669C12.1281 20.0721 12.1228 20.0772 12.1175 20.0823C11.9295 20.2655 11.7739 20.4169 11.4334 20.4169Z" fill="#1D1D1D"/>
</svg>
