<svg width="20" height="20" viewBox="0 0 20 20" fill="none" xmlns="http://www.w3.org/2000/svg">
<path d="M4.28596 14.1904H3.52405C2.68248 14.1904 2.00024 13.5082 2.00024 12.6666V5.80945C2.00024 4.96788 2.68248 4.28564 3.52405 4.28564H10.3812C11.2228 4.28564 11.905 4.96788 11.905 5.80945V12.6666C11.905 13.5082 11.2228 14.1904 10.3812 14.1904H9.61929M13.0479 14.1904H12.6669C12.2461 14.1904 11.905 13.8493 11.905 13.4285V6.95231C11.905 6.53152 12.2461 6.19041 12.6669 6.19041H14.5864C14.8179 6.19041 15.0368 6.29562 15.1814 6.47635L17.8333 9.79123C17.9414 9.92633 18.0002 10.0942 18.0002 10.2672V13.4285C18.0002 13.8493 17.6591 14.1904 17.2383 14.1904M8.85739 13.8095C8.85739 14.8614 8.0046 15.7142 6.95262 15.7142C5.90065 15.7142 5.04786 14.8614 5.04786 13.8095C5.04786 12.7575 5.90065 11.9047 6.95262 11.9047C8.0046 11.9047 8.85739 12.7575 8.85739 13.8095ZM16.8574 13.8095C16.8574 14.8614 16.0046 15.7142 14.9526 15.7142C13.9007 15.7142 13.0479 14.8614 13.0479 13.8095C13.0479 12.7575 13.9007 11.9047 14.9526 11.9047C16.0046 11.9047 16.8574 12.7575 16.8574 13.8095Z" stroke="#EEEEEE" stroke-width="1.66667" stroke-linecap="round"/>
</svg>
