<svg width="28" height="28" viewBox="0 0 28 28" fill="none" xmlns="http://www.w3.org/2000/svg">
<path fill-rule="evenodd" clip-rule="evenodd" d="M0 14C0 21.732 6.26801 28 14 28C21.732 28 28 21.732 28 14C28 6.26801 21.732 0 14 0C6.26801 0 0 6.26801 0 14ZM22.7863 13.4642C22.7844 18.0532 19.0514 21.7871 14.4615 21.789H14.458C13.0647 21.7885 11.6957 21.4389 10.4798 20.7757L6.06667 21.9333L7.24769 17.6195C6.51918 16.357 6.13584 14.9249 6.13646 13.4576C6.13829 8.86765 9.87281 5.13333 14.4614 5.13333C16.6884 5.13429 18.7786 6.00125 20.3503 7.57482C21.922 9.14831 22.7871 11.2399 22.7863 13.4642Z" fill="#1D1D1D"/>
<path fill-rule="evenodd" clip-rule="evenodd" d="M8.06542 19.9552L10.6842 19.2682L10.9369 19.4182C11.9992 20.0486 13.217 20.3822 14.4586 20.3827H14.4614C18.2751 20.3827 21.3791 17.2786 21.3806 13.4634C21.3813 11.6145 20.6623 9.87611 19.3559 8.56822C18.0496 7.26033 16.3123 6.5397 14.4642 6.53906C10.6475 6.53906 7.54351 9.64279 7.54199 13.4578C7.54146 14.7652 7.90727 16.0385 8.5999 17.1401L8.76442 17.4019L8.06542 19.9552ZM18.3705 15.2562C18.5156 15.3263 18.6136 15.3736 18.6554 15.4435C18.7074 15.5302 18.7074 15.9467 18.5342 16.4326C18.3608 16.9185 17.5298 17.362 17.1301 17.4217C16.7717 17.4752 16.3182 17.4976 15.8199 17.3392C15.5178 17.2434 15.1304 17.1154 14.6341 16.9011C12.6841 16.059 11.3662 14.169 11.1172 13.8118C11.0997 13.7868 11.0875 13.7693 11.0807 13.7602L11.079 13.758C10.969 13.6111 10.2314 12.627 10.2314 11.6084C10.2314 10.6503 10.702 10.1481 10.9187 9.9169C10.9335 9.90106 10.9471 9.8865 10.9594 9.87314C11.15 9.66489 11.3754 9.61283 11.5141 9.61283C11.6527 9.61283 11.7915 9.61411 11.9127 9.6202C11.9277 9.62095 11.9432 9.62086 11.9593 9.62076C12.0805 9.62005 12.2317 9.61917 12.3807 9.97727C12.4381 10.1151 12.522 10.3194 12.6105 10.5349C12.7895 10.9706 12.9873 11.4521 13.0221 11.5218C13.0741 11.6259 13.1087 11.7473 13.0394 11.8862C13.029 11.907 13.0194 11.9267 13.0102 11.9454C12.9581 12.0518 12.9198 12.13 12.8314 12.2332C12.7967 12.2738 12.7607 12.3175 12.7248 12.3612C12.6533 12.4484 12.5817 12.5355 12.5194 12.5976C12.4153 12.7013 12.3069 12.8139 12.4282 13.0221C12.5495 13.2304 12.967 13.9115 13.5854 14.4631C14.2501 15.056 14.8278 15.3066 15.1207 15.4336C15.1778 15.4584 15.2242 15.4785 15.2581 15.4955C15.4661 15.5997 15.5874 15.5822 15.7088 15.4435C15.8301 15.3046 16.2288 14.8361 16.3674 14.6278C16.506 14.4197 16.6448 14.4544 16.8354 14.5237C17.0261 14.5932 18.0488 15.0964 18.2568 15.2005C18.2974 15.2208 18.3354 15.2392 18.3705 15.2562Z" fill="#1D1D1D"/>
</svg>
