<svg width="20" height="20" viewBox="0 0 20 20" fill="none" xmlns="http://www.w3.org/2000/svg">
<g clip-path="url(#clip0_20861_1686)">
<path fill-rule="evenodd" clip-rule="evenodd" d="M10 0C4.47715 0 0 4.47715 0 10C0 15.5228 4.47715 20 10 20C15.5228 20 20 15.5228 20 10C20 4.47715 15.5228 0 10 0ZM7.80145 4.69887C8.37034 4.67298 8.55212 4.66665 10.0006 4.66665H9.99891C11.4478 4.66665 11.6289 4.67298 12.1978 4.69887C12.7656 4.72487 13.1534 4.81476 13.4934 4.94665C13.8445 5.08276 14.1412 5.26499 14.4378 5.56166C14.7345 5.8581 14.9167 6.15566 15.0534 6.50644C15.1845 6.84556 15.2745 7.23312 15.3012 7.8009C15.3267 8.3698 15.3334 8.55158 15.3334 10C15.3334 11.4485 15.3267 11.6298 15.3012 12.1987C15.2745 12.7663 15.1845 13.154 15.0534 13.4932C14.9167 13.8439 14.7345 14.1414 14.4378 14.4379C14.1415 14.7345 13.8444 14.9172 13.4937 15.0534C13.1544 15.1853 12.7664 15.2752 12.1986 15.3012C11.6297 15.3271 11.4485 15.3334 9.99992 15.3334C8.55157 15.3334 8.3699 15.3271 7.801 15.3012C7.23333 15.2752 6.84566 15.1853 6.50632 15.0534C6.15576 14.9172 5.8582 14.7345 5.56187 14.4379C5.26531 14.1414 5.08309 13.8439 4.94675 13.4931C4.81497 13.154 4.72508 12.7664 4.69897 12.1986C4.67319 11.6297 4.66675 11.4485 4.66675 10C4.66675 8.55158 4.67341 8.36969 4.69886 7.80079C4.72442 7.23323 4.81442 6.84556 4.94664 6.50633C5.08331 6.15566 5.26553 5.8581 5.5622 5.56166C5.85865 5.2651 6.15621 5.08287 6.50699 4.94665C6.8461 4.81476 7.23366 4.72487 7.80145 4.69887Z" fill="#EEEEEE"/>
<path fill-rule="evenodd" clip-rule="evenodd" d="M9.52224 5.6278C9.61514 5.62765 9.71508 5.6277 9.82293 5.62775L10.0007 5.6278C11.4247 5.6278 11.5935 5.63291 12.1558 5.65847C12.6758 5.68224 12.9581 5.76913 13.1461 5.84213C13.3949 5.9388 13.5724 6.05436 13.7589 6.24103C13.9456 6.4277 14.0612 6.60548 14.1581 6.85437C14.2311 7.04215 14.3181 7.32437 14.3417 7.84438C14.3673 8.40661 14.3728 8.5755 14.3728 9.99884C14.3728 11.4222 14.3673 11.5911 14.3417 12.1533C14.318 12.6733 14.2311 12.9555 14.1581 13.1433C14.0614 13.3922 13.9456 13.5694 13.7589 13.756C13.5723 13.9427 13.3951 14.0582 13.1461 14.1549C12.9583 14.2282 12.6758 14.3149 12.1558 14.3387C11.5936 14.3642 11.4247 14.3698 10.0007 14.3698C8.57656 14.3698 8.40778 14.3642 7.84555 14.3387C7.32555 14.3147 7.04332 14.2278 6.85521 14.1548C6.60632 14.0581 6.42854 13.9426 6.24187 13.7559C6.0552 13.5692 5.93964 13.3919 5.84275 13.1429C5.76975 12.9551 5.68275 12.6729 5.65908 12.1529C5.63353 11.5906 5.62842 11.4217 5.62842 9.99751C5.62842 8.57327 5.63353 8.40527 5.65908 7.84304C5.68286 7.32304 5.76975 7.04081 5.84275 6.85281C5.93942 6.60392 6.0552 6.42614 6.24187 6.23947C6.42854 6.0528 6.60632 5.93725 6.85521 5.84036C7.04321 5.76702 7.32555 5.68035 7.84555 5.65647C8.33756 5.63424 8.52823 5.62758 9.52224 5.62646V5.6278ZM12.8476 6.51332C12.4943 6.51332 12.2076 6.79966 12.2076 7.15311C12.2076 7.50645 12.4943 7.79312 12.8476 7.79312C13.2009 7.79312 13.4876 7.50645 13.4876 7.15311C13.4876 6.79977 13.2009 6.5131 12.8476 6.5131V6.51332ZM7.26172 9.9999C7.26172 8.48737 8.488 7.26105 10.0005 7.26099C11.5131 7.26099 12.7391 8.48733 12.7391 9.9999C12.7391 11.5125 11.5132 12.7383 10.0006 12.7383C8.48807 12.7383 7.26172 11.5125 7.26172 9.9999Z" fill="#EEEEEE"/>
<path d="M10.0005 8.22217C10.9822 8.22217 11.7782 9.01807 11.7782 9.99996C11.7782 10.9818 10.9822 11.7778 10.0005 11.7778C9.01855 11.7778 8.22266 10.9818 8.22266 9.99996C8.22266 9.01807 9.01855 8.22217 10.0005 8.22217Z" fill="#EEEEEE"/>
</g>
<defs>
<clipPath id="clip0_20861_1686">
<rect width="20" height="20" fill="white"/>
</clipPath>
</defs>
</svg>
