<svg width="20" height="20" viewBox="0 0 20 20" fill="none" xmlns="http://www.w3.org/2000/svg">
<g clip-path="url(#clip0_20861_1706)">
<path fill-rule="evenodd" clip-rule="evenodd" d="M10 0C4.47715 0 0 4.47715 0 10C0 15.5228 4.47715 20 10 20C15.5228 20 20 15.5228 20 10C20 4.47715 15.5228 0 10 0ZM4.80062 8.28242H7.06684V15.0915H4.80062V8.28242ZM7.21623 6.17612C7.20152 5.5085 6.7241 5 5.94884 5C5.17359 5 4.66675 5.5085 4.66675 6.17612C4.66675 6.82992 5.15861 7.35306 5.91943 7.35306H5.93391C6.7241 7.35306 7.21623 6.82992 7.21623 6.17612ZM12.6303 8.12256C14.1216 8.12256 15.2396 9.09595 15.2396 11.1874L15.2395 15.0915H12.9734V11.4487C12.9734 10.5336 12.6454 9.90927 11.825 9.90927C11.199 9.90927 10.826 10.3302 10.6622 10.7367C10.6023 10.8824 10.5876 11.0854 10.5876 11.2889V15.0917H8.32113C8.32113 15.0917 8.351 8.92155 8.32113 8.28263H10.5876V9.24707C10.8884 8.78345 11.4271 8.12256 12.6303 8.12256Z" fill="#EEEEEE"/>
</g>
<defs>
<clipPath id="clip0_20861_1706">
<rect width="20" height="20" fill="white"/>
</clipPath>
</defs>
</svg>
