<svg width="20" height="20" viewBox="0 0 20 20" fill="none" xmlns="http://www.w3.org/2000/svg">
<g clip-path="url(#clip0_20861_1701)">
<path fill-rule="evenodd" clip-rule="evenodd" d="M10 0C4.47715 0 0 4.47715 0 10C0 15.5228 4.47715 20 10 20C15.5228 20 20 15.5228 20 10C20 4.47715 15.5228 0 10 0ZM9.72149 8.47431L9.7005 8.12829C9.63755 7.23145 10.1901 6.4123 11.0645 6.09452C11.3862 5.98154 11.9318 5.96741 12.2886 6.06628C12.4285 6.10865 12.6943 6.24988 12.8831 6.37699L13.2259 6.61003L13.6036 6.48998C13.8134 6.42642 14.0932 6.3205 14.2191 6.24988C14.338 6.18633 14.443 6.15102 14.443 6.1722C14.443 6.29225 14.1842 6.70183 13.9673 6.9278C13.6735 7.24558 13.7575 7.27382 14.352 7.06197C14.7088 6.94193 14.7158 6.94193 14.6458 7.0761C14.6039 7.14671 14.387 7.39387 14.1562 7.61985C13.7645 8.00824 13.7435 8.05061 13.7435 8.37545C13.7435 8.87683 13.5057 9.92196 13.2678 10.494C12.8272 11.5673 11.8829 12.676 10.9386 13.2339C9.60957 14.0177 7.83989 14.2155 6.35 13.7565C5.85336 13.6011 5 13.2056 5 13.135C5 13.1138 5.25881 13.0856 5.57357 13.0785C6.23108 13.0644 6.88859 12.8808 7.44818 12.556L7.8259 12.33L7.39222 12.1817C6.77668 11.9698 6.22409 11.4826 6.08419 11.0236C6.04222 10.8753 6.05621 10.8682 6.44792 10.8682L6.85362 10.8612L6.51088 10.6987C6.10518 10.494 5.73445 10.1479 5.55259 9.79485C5.41969 9.54063 5.25181 8.89801 5.30078 8.84858C5.31477 8.8274 5.46166 8.86977 5.62953 8.92626C6.11217 9.1028 6.17513 9.06043 5.89533 8.76384C5.37072 8.22715 5.20984 7.42918 5.46166 6.67358L5.58057 6.33462L6.04222 6.79363C6.98652 7.71871 8.09869 8.26952 9.37175 8.43194L9.72149 8.47431Z" fill="#EEEEEE"/>
</g>
<defs>
<clipPath id="clip0_20861_1701">
<rect width="20" height="20" fill="white"/>
</clipPath>
</defs>
</svg>
